<svg width="38" height="38" viewBox="0 0 38 38" fill="none" xmlns="http://www.w3.org/2000/svg">
<rect width="38" height="38" rx="19" fill="#733DD9" fill-opacity="0.08"/>
<g clip-path="url(#clip0_7497_27501)">
<path d="M7.00196 15L5.02101 21.3631C4.92097 21.6836 5.19084 22 5.5619 22H13.6229C13.951 22 14.2383 21.8043 14.3255 21.5223L16.3414 15H14.7722L13.0518 20.6491H6.80537L8.57811 15H7.00196Z" fill="#733DD9"/>
<path d="M15.1953 22L16.4958 17.8381H24.2625L24.7185 16.3686H16.9297L17.36 15H25.9725C26.3191 15 26.5715 15.2956 26.4785 15.5953L25.5653 18.5458C25.4455 18.9329 25.0524 19.2004 24.6034 19.2004H17.6264L16.7656 22H15.1953V22Z" fill="#733DD9"/>
<path d="M27.7967 15H29.3415L27.2023 21.95H25.625L27.7967 15Z" fill="#733DD9"/>
<path d="M30.6536 15L32.6009 18.475L28.5215 21.95L30.6536 15Z" fill="#733DD9"/>
<path d="M29.8984 21.95L32.0481 15L33.9999 18.5L29.8984 21.95Z" fill="#733DD9"/>
</g>
<defs>
<clipPath id="clip0_7497_27501">
<rect width="29" height="7" fill="white" transform="translate(5 15)"/>
</clipPath>
</defs>
</svg>
